#define ha_logo_48px_width 48
#define ha_logo_48px_height 48
static unsigned char ha_logo_48px_bits[] = {
  0x00,   0x00,   0x00,   0x00,   0x00,   0x00,   0x00,   0x00,   0x00,   0x00,   0x00,   0x00,
  0x00,   0x00,   0x00,   0x00,   0x00,   0x00,   0x00,   0x00,   0x80,   0x03,   0x00,   0x00,
  0x00,   0x00,   0x80,   0x03,   0x00,   0x00,   0x00,   0x00,   0x80,   0x33,   0x00,   0x00,
  0x00,   0x00,   0x00,   0xc1,   0x00,   0x00,   0x00,   0x00,   0xc0,   0x86,   0x01,   0x00,
  0x00,   0x00,   0x60,   0x0c,   0x02,   0x00,   0x00,   0x00,   0x30,   0x38,   0x04,   0x00,
  0x00,   0x00,   0x18,   0x70,   0x0c,   0x00,   0x00,   0x00,   0x04,   0x40,   0x08,   0x00,
  0x00,   0x00,   0x03,   0x86,   0x09,   0x00,   0x00,   0x80,   0x01,   0x8c,   0x13,   0x00,
  0x00,   0xc0,   0x00,   0x18,   0x17,   0x00,   0x00,   0x60,   0x00,   0x10,   0x1d,   0x00,
  0x00,   0x10,   0x00,   0x10,   0x11,   0x00,   0x00,   0x0c,   0x00,   0x10,   0x71,   0x00,
  0x00,   0x06,   0x00,   0x18,   0xd1,   0x00,   0x00,   0x3b,   0x00,   0x8c,   0xb9,   0x01,
  0x80,   0x39,   0x00,   0x86,   0x38,   0x03,   0x40,   0xfc,   0xff,   0xff,   0x3f,   0x04,
  0x00,   0x04,   0x00,   0x60,   0x24,   0x00,   0x00,   0x04,   0x00,   0x18,   0x26,   0x00,
  0x00,   0x04,   0x00,   0x00,   0x22,   0x00,   0x00,   0x84,   0x03,   0xc0,   0x21,   0x00,
  0x00,   0x84,   0x03,   0xc0,   0x21,   0x00,   0x00,   0x84,   0x03,   0xf0,   0x21,   0x00,
  0x00,   0x04,   0x00,   0x00,   0x20,   0x00,   0x00,   0x04,   0x00,   0x00,   0x20,   0x00,
  0x00,   0x04,   0xc0,   0x07,   0x20,   0x00,   0x00,   0x04,   0x40,   0x04,   0x20,   0x00,
  0x00,   0x04,   0x40,   0x04,   0x20,   0x00,   0x00,   0x84,   0x43,   0xc4,   0x21,   0x00,
  0x00,   0x84,   0x43,   0xc4,   0x21,   0x00,   0x00,   0x84,   0x43,   0xc4,   0x21,   0x00,
  0x00,   0x04,   0x40,   0x04,   0x20,   0x00,   0x00,   0x04,   0x40,   0x04,   0x20,   0x00,
  0x00,   0x04,   0x40,   0x04,   0x20,   0x00,   0x00,   0x04,   0x40,   0x04,   0x20,   0x00,
  0x00,   0xfc,   0xff,   0xff,   0x3f,   0x00,   0x00,   0x00,   0x00,   0x00,   0x00,   0x00,
  0x00,   0x00,   0x00,   0x00,   0x00,   0x00,   0x00,   0x00,   0x00,   0x00,   0x00,   0x00,
  0x00,   0x00,   0x00,   0x00,   0x00,   0x00,   0x00,   0x00,   0x00,   0x00,   0x00,   0x00,
  0x00,   0x00,   0x00,   0x00,   0x00,   0x00,   0x00,   0x00,   0x00,   0x00,   0x00,   0x00
};
