#define ha_logo_64px_width 64
#define ha_logo_64px_height 64
static unsigned char ha_logo_64px_bits[] = {
  0x00,   0x00,   0x00,   0x00,   0x00,   0x00,   0x00,   0x00,   0x00,   0x00,   0x00,   0x00,
  0x00,   0x00,   0x00,   0x00,   0x00,   0x00,   0x00,   0x00,   0x00,   0x00,   0x00,   0x00,
  0x00,   0x00,   0x00,   0x00,   0x00,   0x00,   0x00,   0x00,   0x00,   0x00,   0x00,   0x00,
  0x00,   0x00,   0x00,   0x00,   0x00,   0x00,   0x00,   0x00,   0x00,   0x00,   0x00,   0x00,
  0x00,   0x00,   0x00,   0x80,   0x03,   0x00,   0x00,   0x00,   0x00,   0x00,   0x00,   0x80,
  0x03,   0x00,   0x00,   0x00,   0x00,   0x00,   0x00,   0x80,   0x63,   0x00,   0x00,   0x00,
  0x00,   0x00,   0x00,   0xc0,   0x86,   0x01,   0x00,   0x00,   0x00,   0x00,   0x00,   0x60,
  0x0c,   0x03,   0x00,   0x00,   0x00,   0x00,   0x00,   0x10,   0x10,   0x04,   0x00,   0x00,
  0x00,   0x00,   0x00,   0x18,   0x30,   0x08,   0x00,   0x00,   0x00,   0x00,   0x00,   0x04,
  0x78,   0x10,   0x00,   0x00,   0x00,   0x00,   0x00,   0x03,   0xe0,   0x31,   0x00,   0x00,
  0x00,   0x00,   0x00,   0x01,   0x80,   0x21,   0x00,   0x00,   0x00,   0x00,   0xc0,   0x00,
  0x00,   0x47,   0x00,   0x00,   0x00,   0x00,   0x60,   0x00,   0x04,   0x4f,   0x00,   0x00,
  0x00,   0x00,   0x10,   0x00,   0x0c,   0xd2,   0x00,   0x00,   0x00,   0x00,   0x0c,   0x00,
  0x10,   0xe6,   0x00,   0x00,   0x00,   0x00,   0x06,   0x00,   0x30,   0xc4,   0x00,   0x00,
  0x00,   0x00,   0x01,   0x00,   0x20,   0x84,   0x01,   0x00,   0x00,   0x80,   0x01,   0x00,
  0x20,   0x84,   0x03,   0x00,   0x00,   0x40,   0x00,   0x00,   0x20,   0x84,   0x04,   0x00,
  0x00,   0x30,   0x00,   0x00,   0x30,   0x84,   0x18,   0x00,   0x00,   0x10,   0x00,   0x00,
  0x10,   0x86,   0x10,   0x00,   0x00,   0x0c,   0x07,   0x00,   0x0c,   0xc2,   0x61,   0x00,
  0x00,   0x06,   0x07,   0x00,   0x04,   0xc3,   0xc1,   0x00,   0x00,   0xc1,   0xff,   0xff,
  0xff,   0xff,   0x03,   0x01,   0x00,   0x40,   0x00,   0x00,   0x80,   0x20,   0x02,   0x00,
  0x00,   0x40,   0x00,   0x00,   0x60,   0x30,   0x02,   0x00,   0x00,   0x40,   0x00,   0x00,
  0x38,   0x10,   0x02,   0x00,   0x00,   0x40,   0x00,   0x00,   0x00,   0x08,   0x02,   0x00,
  0x00,   0x40,   0x38,   0x00,   0x00,   0x1c,   0x02,   0x00,   0x00,   0x40,   0x38,   0x00,
  0x00,   0x1f,   0x02,   0x00,   0x00,   0x40,   0x38,   0x00,   0x80,   0x1d,   0x02,   0x00,
  0x00,   0x40,   0x00,   0x00,   0x60,   0x00,   0x02,   0x00,   0x00,   0x40,   0x00,   0x00,
  0x00,   0x00,   0x02,   0x00,   0x00,   0x40,   0x00,   0x00,   0x00,   0x00,   0x02,   0x00,
  0x00,   0x40,   0x00,   0x00,   0x00,   0x00,   0x02,   0x00,   0x00,   0x40,   0x00,   0xc0,
  0x07,   0x00,   0x02,   0x00,   0x00,   0x40,   0x00,   0x40,   0x04,   0x00,   0x02,   0x00,
  0x00,   0x40,   0x00,   0x40,   0x04,   0x00,   0x02,   0x00,   0x00,   0x40,   0x00,   0x40,
  0x04,   0x00,   0x02,   0x00,   0x00,   0x40,   0x38,   0x40,   0x04,   0x1c,   0x02,   0x00,
  0x00,   0x40,   0x38,   0x40,   0x04,   0x1c,   0x02,   0x00,   0x00,   0x40,   0x38,   0x40,
  0x04,   0x1c,   0x02,   0x00,   0x00,   0x40,   0x00,   0x40,   0x04,   0x00,   0x02,   0x00,
  0x00,   0x40,   0x00,   0x40,   0x04,   0x00,   0x02,   0x00,   0x00,   0x40,   0x00,   0x40,
  0x04,   0x00,   0x02,   0x00,   0x00,   0x40,   0x00,   0x40,   0x04,   0x00,   0x02,   0x00,
  0x00,   0x40,   0x00,   0x40,   0x04,   0x00,   0x02,   0x00,   0x00,   0xc0,   0xff,   0xff,
  0xff,   0xff,   0x03,   0x00,   0x00,   0x00,   0x00,   0x00,   0x00,   0x00,   0x00,   0x00,
  0x00,   0x00,   0x00,   0x00,   0x00,   0x00,   0x00,   0x00,   0x00,   0x00,   0x00,   0x00,
  0x00,   0x00,   0x00,   0x00,   0x00,   0x00,   0x00,   0x00,   0x00,   0x00,   0x00,   0x00,
  0x00,   0x00,   0x00,   0x00,   0x00,   0x00,   0x00,   0x00,   0x00,   0x00,   0x00,   0x00,
  0x00,   0x00,   0x00,   0x00,   0x00,   0x00,   0x00,   0x00,   0x00,   0x00,   0x00,   0x00,
  0x00,   0x00,   0x00,   0x00,   0x00,   0x00,   0x00,   0x00,   0x00,   0x00,   0x00,   0x00,
  0x00,   0x00,   0x00,   0x00,   0x00,   0x00,   0x00,   0x00,   0x00,   0x00,   0x00,   0x00,
  0x00,   0x00,   0x00,   0x00,   0x00,   0x00,   0x00,   0x00
};
